<?xml version="1.0" standalone="no"?>
<!DOCTYPE svg PUBLIC "-//W3C//DTD SVG 20010904//EN"
 "http://www.w3.org/TR/2001/REC-SVG-20010904/DTD/svg10.dtd">
<svg version="1.0" xmlns="http://www.w3.org/2000/svg"
 width="20px" height="20px" viewBox="0 0 225.000000 225.000000"
 preserveAspectRatio="xMidYMid meet">

<g transform="translate(0.000000,225.000000) scale(0.100000,-0.100000)"
fill="#ffffff" stroke="none">
<path d="M870 2000 l0 -80 235 0 235 0 0 80 0 80 -235 0 -235 0 0 -80z"/>
<path d="M1020 1800 c0 -37 -2 -40 -37 -49 -21 -6 -44 -11 -51 -11 -8 0 -48
-12 -90 -26 -196 -65 -377 -228 -459 -412 -75 -170 -94 -351 -54 -516 70 -288
265 -498 546 -586 99 -31 273 -38 384 -16 304 62 534 277 617 577 28 99 25
309 -4 412 -82 288 -302 500 -580 562 -37 9 -77 18 -89 20 -19 5 -23 12 -23
45 l0 40 -80 0 -80 0 0 -40z m288 -233 c266 -93 432 -327 432 -606 0 -180 -58
-319 -185 -447 -129 -129 -262 -184 -450 -184 -189 0 -322 55 -450 184 -92 93
-136 169 -165 282 -24 94 -26 235 -5 319 61 237 244 417 480 471 93 21 253 13
343 -19z"/>
<path d="M1101 1571 c-2 -21 -62 -413 -67 -439 -3 -13 -18 -36 -34 -50 -106
-98 -38 -274 105 -274 144 0 210 174 104 273 -29 27 -31 35 -64 251 -36 231
-42 263 -44 239z"/>
<path d="M1672 1747 l-52 -52 108 -108 108 -107 54 55 54 55 -104 105 c-58 58
-107 105 -110 105 -3 0 -29 -24 -58 -53z"/>
</g>
</svg>
